<svg width="14" height="18" viewBox="0 0 14 18" fill="none" xmlns="http://www.w3.org/2000/svg">
<path d="M12.3291 3.08241C11.2367 1.19719 9.29636 0.0454395 7.13864 0.00142383C7.04653 -0.000474609 6.95383 -0.000474609 6.86168 0.00142383C4.704 0.0454395 2.76366 1.19719 1.67121 3.08241C0.554581 5.0094 0.52403 7.32408 1.58948 9.27424L6.05302 17.4441C6.05502 17.4477 6.05703 17.4513 6.0591 17.4549C6.25548 17.7963 6.60729 18 7.00023 18C7.39314 18 7.74495 17.7962 7.9413 17.4549C7.94337 17.4513 7.94537 17.4477 7.94738 17.4441L12.4109 9.27424C13.4763 7.32408 13.4457 5.0094 12.3291 3.08241ZM7.00016 8.15627C5.60442 8.15627 4.46891 7.02076 4.46891 5.62502C4.46891 4.22928 5.60442 3.09377 7.00016 3.09377C8.3959 3.09377 9.53141 4.22928 9.53141 5.62502C9.53141 7.02076 8.39594 8.15627 7.00016 8.15627Z" fill="white"/>
</svg>
