<svg width="15" height="18" viewBox="0 0 15 18" fill="none" xmlns="http://www.w3.org/2000/svg">
<path d="M14.2947 14.3935C14.3734 14.4946 14.4289 14.6038 14.4604 14.7212C14.5039 14.8838 14.5014 15.0465 14.4526 15.2108C14.4041 15.3745 14.3118 15.5147 14.1762 15.6307L13.5373 16.1685C13.2869 16.3746 13.0266 16.5453 12.7564 16.6806C12.4863 16.8159 12.2053 16.9229 11.913 17.0012C11.443 17.1272 10.9579 17.1734 10.4573 17.14C9.95679 17.1067 9.45799 17.0004 8.96105 16.8217C8.46412 16.6429 7.97653 16.396 7.49895 16.0818C7.02126 15.7671 6.5689 15.3949 6.14261 14.9645C5.88214 14.7324 5.60174 14.463 5.30099 14.1566C5.04587 13.8954 4.74995 13.58 4.41271 13.21C4.07557 12.8404 3.72397 12.4235 3.35738 11.9609C2.9856 11.4992 2.67932 11.0911 2.43896 10.7363C2.19848 10.3811 2.00618 10.0841 1.8629 9.84498C1.69529 9.56578 1.56625 9.32242 1.4759 9.11532C1.24941 8.74642 1.05473 8.37127 0.892295 7.98974C0.729859 7.60821 0.596739 7.2229 0.492626 6.83434C0.356486 6.32626 0.276656 5.82391 0.252486 5.32657C0.228316 4.82923 0.267878 4.35012 0.370327 3.88946C0.472777 3.42881 0.64325 2.99565 0.881747 2.58998C1.12024 2.18431 1.43383 1.82234 1.82227 1.50325L2.45395 0.978642C2.55455 0.89963 2.66213 0.845002 2.77616 0.814447C2.93665 0.771443 3.09805 0.775728 3.26045 0.827724C3.42244 0.879833 3.55927 0.974897 3.67021 1.11356L5.90042 3.89062C5.97955 3.99163 6.03418 4.09922 6.06473 4.21325C6.10966 4.38092 6.10811 4.54746 6.05967 4.71299C6.01123 4.87852 5.91822 5.01797 5.78012 5.13102L4.53034 6.16844C4.36518 6.30549 4.25511 6.47078 4.19952 6.66539C4.14435 6.85988 4.14241 7.05369 4.19424 7.24712C4.23363 7.3941 4.29808 7.52485 4.38815 7.63968L8.16027 12.3566C8.30703 12.5377 8.47382 12.655 8.66149 12.7084C8.84875 12.7619 9.03788 12.7633 9.22793 12.7124C9.35759 12.6776 9.48186 12.6126 9.60086 12.5178L10.8506 11.4804C10.9501 11.4022 11.0567 11.3473 11.1707 11.3168C11.3279 11.2747 11.4884 11.2792 11.6521 11.3308C11.8157 11.3825 11.954 11.4763 12.0666 11.6127L14.2947 14.3935Z" fill="white"/>
</svg>
