<svg width="18" height="14" viewBox="0 0 18 14" fill="none" xmlns="http://www.w3.org/2000/svg">
<path d="M17.8415 1.57594L12.3825 6.99982L17.8415 12.4237C17.9402 12.2174 18.0001 11.9894 18.0001 11.7459V2.25372C18.0001 2.01019 17.9402 1.78221 17.8415 1.57594Z" fill="white"/>
<path d="M16.418 0.671875H1.58208C1.33856 0.671875 1.11057 0.731746 0.904305 0.83043L7.88152 7.7725C8.49844 8.38943 9.50166 8.38943 10.1186 7.7725L17.0958 0.83043C16.8895 0.731746 16.6615 0.671875 16.418 0.671875Z" fill="white"/>
<path d="M0.158555 1.57594C0.0598711 1.78221 0 2.01019 0 2.25372V11.7459C0 11.9894 0.0598711 12.2175 0.158555 12.4237L5.61758 6.99982L0.158555 1.57594Z" fill="white"/>
<path d="M11.6368 7.74576L10.8643 8.51825C9.83635 9.54618 8.16372 9.54618 7.13579 8.51825L6.36333 7.74576L0.904305 13.1696C1.11057 13.2683 1.33856 13.3282 1.58208 13.3282H16.418C16.6615 13.3282 16.8895 13.2683 17.0958 13.1696L11.6368 7.74576Z" fill="white"/>
</svg>
