<svg width="537" height="728" viewBox="0 0 537 728" fill="none" xmlns="http://www.w3.org/2000/svg">
<path fill-rule="evenodd" clip-rule="evenodd" d="M247.091 66.0428C247.091 71.6428 248.425 78.2095 249.091 80.5428C249.035 80.5146 248.98 80.4867 248.925 80.4592C248.018 80.0002 247.091 78.8428 245.091 80.0428C242.591 81.5428 242.12 84.8325 241.626 88.2985L241.591 88.5428C241.275 90.7564 241.126 93.0428 241.626 96.5428C242.126 100.043 242.626 102.159 244.091 107.043C245.333 111.182 247.091 112.543 248.709 115.222C249.022 115.503 249.319 115.771 249.591 116.043C251.091 117.543 253.591 117.376 255.091 117.043V119.043V134.5V144.043C253.425 145.709 248.991 150.143 246.591 154.543C245.911 155.789 245.386 156.779 244.95 157.599L244.949 157.6C243.463 160.398 243.025 161.223 241.091 163.543C235.644 165.586 228.11 170.642 222.436 174.45L222.435 174.451C219.777 176.235 217.527 177.745 216.091 178.543C212.491 178.543 207.258 181.543 205.091 183.043L188.091 192.043C186.258 192.376 182.091 193.043 180.091 193.043C177.591 193.043 166.091 198.043 159.591 201.043C158.627 201.488 157.498 201.999 156.245 202.566C149.048 205.823 137.756 210.933 130.091 216.043C121.091 222.043 118.591 229.543 118.091 233.043C117.769 235.297 113.712 237.345 110.331 239.051C108.464 239.993 106.803 240.831 106.091 241.543C104.832 242.802 104.564 245.25 104.288 247.765C104.126 249.244 103.962 250.746 103.591 252.043C102.919 254.396 100.89 255.167 99.0245 255.876C98.116 256.221 97.2464 256.551 96.5913 257.043C94.5913 258.543 92.0913 260.543 91.5913 263.043C91.0913 265.543 88.5913 268.543 84.5913 270.043C77.7913 272.043 73.4246 276.543 72.0913 278.543C68.5913 282.043 60.7913 289.943 57.5913 293.543C54.258 297.293 48.8413 303.821 45.6816 307.628C45.0496 308.39 44.508 309.043 44.0913 309.543C42.782 311.114 42.0213 310.902 41.3064 310.703C40.6562 310.522 40.0439 310.352 39.0913 311.543C37.4913 313.543 37.0913 316.376 37.0913 317.543L34.0913 321.543C32.9246 322.376 30.0913 324.843 28.0913 328.043C25.9828 331.416 22.8074 334.079 19.7648 336.629C19.2 337.103 18.6392 337.573 18.0913 338.043C15.594 340.183 15.6422 342.069 15.6932 344.064C15.7136 344.865 15.7346 345.683 15.5913 346.543C15.1936 348.929 14.796 349.417 13.8952 350.523C13.6634 350.808 13.3983 351.133 13.0913 351.543C11.5913 353.543 9.09131 357.543 8.59131 358.543C8.47894 358.768 8.39182 359.018 8.2959 359.293C7.96503 360.242 7.52945 361.492 5.59131 363.043C3.09131 365.043 3.09131 369.543 3.09131 370.543C3.09131 370.916 2.95202 371.428 2.72543 372.262C2.34489 373.662 1.7181 375.969 1.09131 380.043C0.410711 384.467 3.66749 387.501 6.44787 390.091C7.75266 391.307 8.95252 392.425 9.59131 393.543C11.5913 397.043 18.0913 404.043 23.0913 408.543C27.0913 412.143 28.0913 414.709 28.0913 415.543C28.5913 416.876 29.7913 420.343 30.5913 423.543C31.3913 426.743 37.9246 427.876 41.0913 428.043C41.9246 428.376 43.8913 429.543 45.0913 431.543C46.5913 434.043 65.5913 454.043 74.0913 461.543C80.8913 467.543 94.258 477.376 100.091 481.543C111.091 489.209 134.191 505.343 138.591 508.543C142.341 511.27 146.556 513.067 149.334 514.252C150.63 514.805 151.614 515.225 152.091 515.543C152.61 515.888 153.367 516.234 154.26 516.642C155.951 517.413 158.128 518.407 160.091 520.043C163.091 522.543 169.091 523.043 170.591 523.043L181.091 524.043C182.591 524.043 185.082 524.043 185.082 524.043C185.082 524.043 169.091 561.543 169.091 567.543C169.091 573.543 166.591 574.543 165.091 580.543C165.091 585.043 162.702 586.91 163.237 591.688C163.631 595.202 164.015 598.636 163.591 600.543C162.944 603.458 162.506 604.065 161.87 604.946C161.524 605.426 162.398 607.486 161.87 608.543C161.138 610.005 161.505 613.156 161.87 617.043C162.253 621.129 161.36 624.48 160.591 627.043C159.776 629.759 161.082 634.6 160.591 639.543C160.179 643.698 160.005 648.105 159.091 654.043C159.091 664.543 158.014 667.389 159.091 672.043C159.545 674.004 158.943 676.764 159.091 678.543C159.591 684.543 160.557 690.151 159.091 700.043C157.091 713.543 157.091 720.543 157.091 727.543H412.091V695.043V666.543C413.291 662.543 413.591 654.043 414.591 648.543C417.258 647.709 422.991 645.743 424.591 644.543C426 643.486 425.176 642.43 424.217 641.199C423.814 640.682 423.387 640.134 423.091 639.543C422.458 638.277 422.627 636.61 422.836 634.543C422.957 633.344 423.091 632.011 423.091 630.543C423.091 627.998 422.484 626.668 421.785 625.135C421.385 624.259 420.955 623.316 420.591 622.043C419.925 619.709 420.147 618.265 420.369 616.821C420.48 616.098 420.591 615.376 420.591 614.543C420.591 613.35 420.25 606.805 419.893 599.961L419.892 599.96C419.501 592.464 419.091 584.611 419.091 583.043C419.091 580.984 418.385 580.338 417.457 579.49C417.033 579.101 416.562 578.671 416.091 578.043C414.591 576.043 415.591 567.043 416.091 562.543C416.491 558.943 414.591 543.043 413.591 535.543C414.425 534.209 416.691 530.943 419.091 528.543C420.355 527.279 421.886 525.393 423.495 523.41L423.496 523.409C425.707 520.686 428.066 517.779 430.091 516.043C431.952 514.448 434.379 512.852 436.92 511.182L436.921 511.181C439.159 509.71 441.485 508.181 443.591 506.543C447.792 503.275 451.122 496.522 452.359 494.011L452.363 494.004C452.45 493.828 452.526 493.674 452.591 493.543C453.591 491.543 456.591 487.043 458.091 485.543C458.856 484.778 460.01 482.586 461.288 480.156C462.519 477.817 463.865 475.259 465.091 473.543C465.531 472.927 466.281 471.847 467.239 470.466C471.727 463.997 480.795 450.927 484.091 448.043C488.091 444.543 505.091 418.543 508.591 412.043C512.091 410.543 520.091 401.043 520.591 399.543C520.732 399.122 520.872 398.543 521.034 397.874C521.451 396.157 522.012 393.841 523.091 392.043C524.291 390.043 524.258 387.543 524.091 386.543C524.758 386.043 526.191 384.643 526.591 383.043C526.758 382.376 526.925 381.376 527.11 380.265C527.48 378.043 527.925 375.376 528.591 374.043C534.091 369.043 534.591 360.043 534.591 358.543V352.043C534.591 351.099 534.926 350.266 535.279 349.386C535.673 348.403 536.091 347.362 536.091 346.043C536.091 344.118 533.719 341.6 530.574 338.26L530.571 338.257C529.633 337.261 528.625 336.191 527.591 335.043C523.782 330.81 523.914 326.936 524.044 323.116C524.068 322.424 524.091 321.733 524.091 321.043C524.091 317.216 521.921 315.197 520.042 313.448C519.712 313.141 519.39 312.842 519.091 312.543C517.804 311.255 516.516 311.418 515.362 311.564C514.723 311.645 514.126 311.721 513.591 311.543C512.091 311.043 509.591 307.543 508.091 303.543C506.591 299.543 503.591 297.043 500.091 294.543C497.887 292.968 496.277 290.599 494.638 288.187C493.675 286.77 492.701 285.338 491.591 284.043C489.615 281.737 486.553 280.299 484.122 279.157C482.863 278.566 481.774 278.055 481.091 277.543C480.043 276.756 479.407 274.321 478.678 271.533C478.017 269.004 477.281 266.184 476.091 264.043C474.091 260.443 467.925 258.209 465.091 257.543C464.091 257.209 461.691 256.243 460.091 255.043C457.978 251.521 448.177 241.303 441.167 233.996C438.225 230.928 435.774 228.373 434.591 227.043C433.783 226.134 432.934 225.122 432.024 224.038C428.428 219.755 423.874 214.33 417.091 209.543C408.591 203.543 376.091 189.043 374.591 188.543C373.804 188.28 372.052 188.156 370.204 188.024C368.531 187.905 366.779 187.78 365.591 187.543C364.585 187.341 362.93 186.735 361.149 186.082C358.506 185.114 355.585 184.043 354.091 184.043C352.491 182.843 345.091 179.876 341.591 178.543C340.091 174.376 337.091 165.643 337.091 164.043C337.091 162.443 335.758 162.043 335.091 162.043C335.091 159.209 335.491 153.043 337.091 151.043C345.126 141 349 130 352.697 122.79L352.697 122.789C353.07 121.591 353.365 120.646 353.591 120.043C355.591 122.043 358.091 119.543 359.091 118.043C359.509 117.417 360.448 115.485 361.511 113.3C362.994 110.25 364.717 106.708 365.591 105.543C366.531 104.29 367.078 101.861 367.724 98.9921C368.11 97.28 368.531 95.4114 369.091 93.5428C370.591 88.5428 366.591 85.0428 364.091 84.5428C362.091 84.1428 358.591 85.3761 357.091 86.0428L358.091 79.0428C358.591 76.5428 359.891 70.6428 361.091 67.0428C362.309 63.3897 362.209 58.089 362.128 53.8157V53.8144C362.109 52.8243 362.091 51.8893 362.091 51.0428C362.091 46.8891 358.683 40.1794 357.372 37.5984C357.263 37.3833 357.168 37.1966 357.091 37.0428C356.624 36.1072 356.375 35.6092 356.191 35.0883C355.982 34.4957 355.857 33.8732 355.591 32.5428C355.091 30.0428 350.591 26.5428 349.091 25.5428C348.066 24.8594 346.107 22.7749 344.331 20.8852L344.329 20.8835C343.507 20.0086 342.724 19.1756 342.091 18.5428C340.091 16.5428 336.091 14.5428 334.091 14.0428C332.091 13.5428 328.091 11.0428 326.091 9.54279C324.619 8.43844 319.894 6.24999 316.706 4.77328C315.564 4.24424 314.619 3.80655 314.091 3.54279C313.66 3.32713 313.019 2.97196 312.245 2.54245C309.427 0.980321 305.745 0.89199 303 0.499817C299.5 -0.000183105 294.591 1.54277 293.091 3.04277C291.591 4.54277 289.091 5.54277 286.091 6.54277C283.091 7.54277 278.5 9.99982 275.5 11.4998C273.284 12.6078 269.659 14.6229 267.846 16.6454C267.205 17.3609 266.614 18.0201 266.091 18.5428C264.091 20.5428 260.091 24.0428 257.591 25.5428C255.091 27.0428 252.591 29.5428 252.091 30.5428C251.591 31.5428 249.591 33.0428 248.591 34.5428C248.959 34.0428 247.951 36.0428 247.815 37.284C247.697 38.3619 247.091 38.5428 247.091 40.5428C247.091 42.0428 247.091 42.5428 247.091 42.5428C247.091 42.5428 247.591 45.5428 247.091 46.0428C247.091 49.5428 247.091 54.0428 247.091 55.5428V66.0428ZM189.591 449.043C191.991 454.643 193.258 457.709 193.591 458.543C193.091 460.043 191.591 463.343 189.591 464.543C188.047 465.469 186.694 467.159 185.295 468.905C184.43 469.985 183.547 471.087 182.591 472.043C181.586 473.048 180.5 474.538 179.464 475.96C177.922 478.076 176.488 480.043 175.591 480.043C174.895 480.043 174.307 479.827 173.676 479.597C172.948 479.33 172.163 479.043 171.091 479.043C169.491 479.043 166.091 480.376 164.591 481.043L157.591 474.543C151.925 469.543 139.391 458.343 134.591 453.543C133.468 452.42 132.188 451.157 130.825 449.813C124.906 443.975 117.436 436.607 114.591 432.543C111.791 428.543 102.091 411.543 97.5913 403.543V400.043C97.5913 398.386 96.2187 396.386 94.6106 394.043L94.61 394.042C94.2772 393.557 93.9342 393.057 93.5913 392.543C91.9913 390.143 86.9246 379.876 84.5913 375.043C87.758 373.043 94.7913 368.543 97.5913 366.543C101.091 364.043 113.591 352.043 119.091 345.543C122.691 344.743 138.591 335.876 146.091 331.543C146.925 333.709 148.791 339.043 149.591 343.043C150.082 345.496 150.693 346.385 151.366 347.362C152.063 348.377 152.827 349.487 153.591 352.543C154.498 356.171 156.685 360.897 158.715 365.282C160.041 368.148 161.301 370.869 162.091 373.043C164.091 378.543 171.591 396.043 174.591 402.043C176.991 406.843 180.591 416.043 182.091 420.043C182.591 421.209 183.691 424.243 184.091 427.043C184.304 428.535 184.699 430.209 185.082 431.832C185.598 434.016 186.091 436.109 186.091 437.543C186.091 440.043 186.591 442.043 189.591 449.043ZM409.591 331.043C409.758 329.209 410.591 325.543 412.591 325.543C413.659 325.543 417.219 326.371 419.591 328.043C424.591 330.043 426.591 331.589 430.091 332.543C433.591 333.497 445.091 333.543 445.091 333.543C445.619 333.543 446.17 333.52 446.731 333.497C449.892 333.366 453.393 333.222 455.091 337.043C455.914 338.893 456.144 340.32 456.374 341.742C456.703 343.779 457.03 345.804 459.091 349.043C460.448 351.175 461.354 352.33 462.042 353.208C463.129 354.594 463.673 355.287 464.591 358.043C465.021 359.331 465.368 360.168 465.645 360.836C466.337 362.503 466.591 363.117 466.591 367.043C466.591 372.543 464.042 379.043 462.042 383.043C460.442 386.243 461.375 393.043 462.042 395.543C462.709 398.043 461.091 405.043 457.591 412.043C455.957 415.312 450.902 423.071 446.2 430.286C443.712 434.106 441.322 437.774 439.591 440.543C439.074 441.371 438.535 442.242 437.98 443.139C433.174 450.904 427.177 460.595 423.591 461.043C422.532 461.175 421.121 461.378 419.546 461.604C415.174 462.232 409.532 463.043 406.591 463.043H397.091C398.591 458.543 401.591 447.043 401.591 437.043C401.591 430.192 402.342 421.689 403.021 414.004C403.581 407.666 404.091 401.884 404.091 398.043C404.091 392.662 404.692 385.278 405.26 378.301C405.59 374.255 405.908 370.346 406.091 367.043C406.491 359.843 408.591 340.043 409.591 331.043Z" fill="#5F878B" stroke="#0857CD" stroke-width="0.2"/>
</svg>
