<svg width="54" height="40" viewBox="0 0 54 40" fill="none" xmlns="http://www.w3.org/2000/svg">
<path d="M50.2553 30.2612C50.2744 29.8734 50.2841 29.4832 50.2841 29.0907C50.2841 16.1622 39.8035 5.68164 26.875 5.68164C13.9465 5.68164 3.46588 16.1622 3.46588 29.0907C3.46588 29.4832 3.47554 29.8734 3.49463 30.2612H50.2553Z" fill="#FEE074" stroke="#24694F" stroke-width="2" stroke-linecap="round" stroke-linejoin="round"/>
<path d="M9.90339 13.875L16.9261 22.6534" stroke="#24694F" stroke-width="2" stroke-linecap="round" stroke-linejoin="round"/>
<path d="M44.1328 13.875L37.4711 22.9305" stroke="#24694F" stroke-width="2" stroke-linecap="round" stroke-linejoin="round"/>
<path d="M22.1932 38.4546L23.254 4.5097C23.3151 2.55389 24.9182 1.00005 26.875 1.00005C28.8318 1.00005 30.4349 2.55389 30.496 4.5097L31.5568 38.4546L22.1932 38.4546Z" fill="white" stroke="#24694F" stroke-width="2" stroke-linecap="round" stroke-linejoin="round"/>
<rect x="1.125" y="30.2612" width="51.5" height="8.19318" rx="2" fill="white" stroke="#24694F" stroke-width="2" stroke-linecap="round" stroke-linejoin="round"/>
</svg>
