<svg width="22" height="38" viewBox="0 0 22 38" fill="none" xmlns="http://www.w3.org/2000/svg">
<path d="M4.70488 16.5348C5.27795 14.9509 6.78186 13.8958 8.46625 13.8958H13.5337C15.2181 13.8958 16.722 14.9509 17.2951 16.5349L20.221 24.6215C20.2999 24.8397 20.3403 25.07 20.3403 25.302V34.0068C20.3403 35.1114 19.4448 36.0068 18.3403 36.0068H3.65973C2.55516 36.0068 1.65973 35.1114 1.65973 34.0068V25.302C1.65973 25.07 1.7001 24.8397 1.77904 24.6215L4.70488 16.5348Z" fill="white" stroke="#24694F" stroke-width="2" stroke-linecap="round" stroke-linejoin="round"/>
<path d="M7.82943 24.3635C7.32838 24.5958 7.11052 25.1903 7.34283 25.6914C7.57514 26.1924 8.16964 26.4103 8.67069 26.178L7.82943 24.3635ZM10.0001 9.44434V21.4413H12.0001V9.44434H10.0001ZM8.26196 24.163L7.82943 24.3635L8.67069 26.178L9.10323 25.9774L8.26196 24.163ZM10.0001 21.4413C10.0001 22.6096 9.32185 23.6716 8.26196 24.163L9.10323 25.9774C10.8697 25.1584 12.0001 23.3884 12.0001 21.4413H10.0001Z" fill="#24694F"/>
<path d="M14.1973 1.99316H3.37506C2.4776 1.99316 1.75006 2.7207 1.75006 3.61816V3.89457C1.75006 4.94468 2.60135 5.79597 3.65146 5.79597H5.87506V9.59877H14.1973C16.2975 9.59877 18.0001 7.8962 18.0001 5.79597C18.0001 3.69574 16.2975 1.99316 14.1973 1.99316Z" stroke="#24694F" stroke-width="2" stroke-linecap="round" stroke-linejoin="round"/>
</svg>
