<svg width="60" height="60" viewBox="0 0 60 60" fill="none" xmlns="http://www.w3.org/2000/svg">
<path fill-rule="evenodd" clip-rule="evenodd" d="M30 59C46.0162 59 59 46.0163 59 30C59 13.9838 46.0162 1 30 1C13.9838 1 1 13.9838 1 30C1 46.0163 13.9838 59 30 59ZM30 44.1282C37.8028 44.1282 44.1282 37.8028 44.1282 30C44.1282 22.1972 37.8028 15.8718 30 15.8718C22.1972 15.8718 15.8718 22.1972 15.8718 30C15.8718 37.8028 22.1972 44.1282 30 44.1282Z" fill="#FEE074" stroke="#24694F" stroke-width="2" stroke-linecap="round" stroke-linejoin="round"/>
<path fill-rule="evenodd" clip-rule="evenodd" d="M48.7468 52.1267C43.6915 56.4141 37.1477 59 30 59C22.8523 59 16.3085 56.4141 11.2532 52.1267L19.402 39.343C21.9908 42.2774 25.7793 44.1282 30 44.1282C34.2207 44.1282 38.0092 42.2774 40.598 39.343L48.7468 52.1267ZM30 1C37.2453 1 43.8701 3.65702 48.953 8.04981L40.7815 20.8691C38.19 17.8121 34.3216 15.8718 30 15.8718C25.6784 15.8718 21.81 17.8121 19.2185 20.8691L11.047 8.04982C16.1299 3.65702 22.7547 1 30 1Z" fill="white"/>
<path d="M48.7468 52.1267L49.3936 52.8894C49.7749 52.566 49.8588 52.0108 49.5901 51.5892L48.7468 52.1267ZM11.2532 52.1267L10.4099 51.5892C10.1412 52.0108 10.2251 52.566 10.6064 52.8894L11.2532 52.1267ZM19.402 39.343L20.1518 38.6815C19.944 38.4459 19.6375 38.3217 19.3243 38.3461C19.0111 38.3705 18.7276 38.5406 18.5587 38.8055L19.402 39.343ZM40.598 39.343L41.4413 38.8055C41.2724 38.5406 40.9889 38.3705 40.6757 38.3461C40.3625 38.3217 40.056 38.4459 39.8482 38.6815L40.598 39.343ZM48.953 8.04981L49.7963 8.58733C50.0631 8.16875 49.9825 7.61779 49.6069 7.29321L48.953 8.04981ZM40.7815 20.8691L40.0187 21.5158C40.2241 21.758 40.5324 21.8883 40.8493 21.8668C41.1662 21.8453 41.454 21.6745 41.6248 21.4066L40.7815 20.8691ZM19.2185 20.8691L18.3752 21.4066C18.546 21.6745 18.8338 21.8453 19.1507 21.8668C19.4676 21.8883 19.7759 21.758 19.9813 21.5158L19.2185 20.8691ZM11.047 8.04982L10.3931 7.29321C10.0175 7.61779 9.93692 8.16875 10.2037 8.58733L11.047 8.04982ZM30 60C37.3934 60 44.1644 57.3242 49.3936 52.8894L48.1 51.3641C43.2186 55.5039 36.9021 58 30 58V60ZM10.6064 52.8894C15.8356 57.3242 22.6066 60 30 60V58C23.0979 58 16.7814 55.5039 11.9 51.3641L10.6064 52.8894ZM18.5587 38.8055L10.4099 51.5892L12.0964 52.6642L20.2452 39.8806L18.5587 38.8055ZM18.6521 40.0046C21.4227 43.145 25.4804 45.1282 30 45.1282V43.1282C26.0781 43.1282 22.5589 41.4098 20.1518 38.6815L18.6521 40.0046ZM30 45.1282C34.5196 45.1282 38.5773 43.145 41.3479 40.0046L39.8482 38.6815C37.4411 41.4098 33.9219 43.1282 30 43.1282V45.1282ZM49.5901 51.5892L41.4413 38.8055L39.7548 39.8806L47.9036 52.6642L49.5901 51.5892ZM49.6069 7.29321C44.3492 2.74938 37.4944 0 30 0V2C36.9962 2 43.3909 4.56465 48.2991 8.80642L49.6069 7.29321ZM41.6248 21.4066L49.7963 8.58733L48.1098 7.5123L39.9383 20.3316L41.6248 21.4066ZM41.5443 20.2225C38.7709 16.9509 34.6277 14.8718 30 14.8718V16.8718C34.0154 16.8718 37.6091 18.6733 40.0187 21.5158L41.5443 20.2225ZM30 14.8718C25.3723 14.8718 21.2291 16.9509 18.4557 20.2225L19.9813 21.5158C22.3909 18.6733 25.9846 16.8718 30 16.8718V14.8718ZM10.2037 8.58733L18.3752 21.4066L20.0617 20.3316L11.8902 7.5123L10.2037 8.58733ZM30 0C22.5056 0 15.6508 2.74938 10.3931 7.29321L11.7009 8.80642C16.6091 4.56465 23.0038 2 30 2V0Z" fill="#24694F"/>
</svg>
