<svg width="40" height="40" viewBox="0 0 40 40" fill="none" xmlns="http://www.w3.org/2000/svg">
<path d="M7.90305 32.0972L6.93691 32.3552C7.02924 32.7009 7.29929 32.971 7.64504 33.0633L7.90305 32.0972ZM32.0971 7.90309L33.0633 7.64508C32.9709 7.29933 32.7009 7.02928 32.3551 6.93695L32.0971 7.90309ZM26.2757 26.2757C21.3691 31.1822 14.4193 32.8023 8.16106 31.131L7.64504 33.0633C14.5647 34.9112 22.2581 33.1217 27.6899 27.6899L26.2757 26.2757ZM31.131 8.1611C32.8022 14.4193 31.1822 21.3692 26.2757 26.2757L27.6899 27.6899C33.1216 22.2581 34.9112 14.5647 33.0633 7.64508L31.131 8.1611ZM13.7245 13.7246C18.631 8.81802 25.5809 7.19797 31.8391 8.86923L32.3551 6.93695C25.4355 5.08905 17.7421 6.87857 12.3103 12.3103L13.7245 13.7246ZM8.86919 31.8392C7.19792 25.5809 8.81798 18.6311 13.7245 13.7246L12.3103 12.3103C6.87853 17.7421 5.08901 25.4355 6.93691 32.3552L8.86919 31.8392Z" fill="#24694F"/>
<path d="M8.37507 31.9485C11.3751 27.1152 16.1749 19.8696 25.3749 14.0696" stroke="#24694F" stroke-width="2" stroke-linecap="round" stroke-linejoin="round"/>
</svg>
