<svg width="58" height="42" viewBox="0 0 58 42" fill="none" xmlns="http://www.w3.org/2000/svg">
<rect x="9" y="9" width="48" height="32" rx="2" fill="#FEE074" stroke="#24694F" stroke-width="2" stroke-linecap="round" stroke-linejoin="round"/>
<rect x="1" y="1" width="48" height="32" rx="2" fill="white" stroke="#24694F" stroke-width="2" stroke-linecap="round" stroke-linejoin="round"/>
<path fill-rule="evenodd" clip-rule="evenodd" d="M19.0974 9.97157C19.8741 8.67614 21.7514 8.67614 22.528 9.97157L27.3471 18.0092L29.4179 14.4224C30.1877 13.089 32.1122 13.089 32.882 14.4224L36.8862 21.3578C37.656 22.6911 36.6937 24.3578 35.1541 24.3578H27.6223H27.1458H14.0031C12.4488 24.3578 11.4885 22.6624 12.2878 21.3293L19.0974 9.97157ZM27.1975 12.8596C28.1897 12.8596 28.9941 12.0553 28.9941 11.0631C28.9941 10.0708 28.1897 9.26648 27.1975 9.26648C26.2053 9.26648 25.4009 10.0708 25.4009 11.0631C25.4009 12.0553 26.2053 12.8596 27.1975 12.8596Z" fill="#24694F"/>
</svg>
