<svg width="14" height="14" viewBox="0 0 14 14" fill="none" xmlns="http://www.w3.org/2000/svg">
<path d="M7.00156 3.41009C5.01517 3.41009 3.41294 5.01268 3.41294 6.99951C3.41294 8.98635 5.01517 10.5889 7.00156 10.5889C8.98795 10.5889 10.5902 8.98635 10.5902 6.99951C10.5902 5.01268 8.98795 3.41009 7.00156 3.41009ZM7.00156 9.33311C5.7179 9.33311 4.66849 8.28658 4.66849 6.99951C4.66849 5.71244 5.71478 4.66592 7.00156 4.66592C8.28834 4.66592 9.33463 5.71244 9.33463 6.99951C9.33463 8.28658 8.28522 9.33311 7.00156 9.33311ZM11.574 3.26326C11.574 3.72873 11.1992 4.10048 10.737 4.10048C10.2716 4.10048 9.89994 3.72561 9.89994 3.26326C9.89994 2.80092 10.2747 2.42604 10.737 2.42604C11.1992 2.42604 11.574 2.80092 11.574 3.26326ZM13.9508 4.11298C13.8977 2.99148 13.6416 1.99806 12.8202 1.17959C12.0019 0.361109 11.0087 0.104945 9.88745 0.048714C8.73185 -0.016889 5.26815 -0.016889 4.11255 0.048714C2.99442 0.101821 2.00123 0.357985 1.17981 1.17646C0.358394 1.99494 0.10541 2.98835 0.0491913 4.10985C-0.0163971 5.26572 -0.0163971 8.73018 0.0491913 9.88604C0.102287 11.0075 0.358394 12.001 1.17981 12.8194C2.00123 13.6379 2.9913 13.8941 4.11255 13.9503C5.26815 14.0159 8.73185 14.0159 9.88745 13.9503C11.0087 13.8972 12.0019 13.641 12.8202 12.8194C13.6385 12.001 13.8946 11.0075 13.9508 9.88604C14.0164 8.73018 14.0164 5.26884 13.9508 4.11298ZM12.4579 11.1263C12.2143 11.7386 11.7427 12.2103 11.1274 12.4571C10.206 12.8226 8.01974 12.7382 7.00156 12.7382C5.98338 12.7382 3.79398 12.8194 2.87574 12.4571C2.26358 12.2134 1.79197 11.7417 1.54523 11.1263C1.17981 10.2047 1.26414 8.01792 1.26414 6.99951C1.26414 5.9811 1.18293 3.79121 1.54523 2.87277C1.78885 2.26047 2.26046 1.78876 2.87574 1.54196C3.7971 1.17646 5.98338 1.26081 7.00156 1.26081C8.01974 1.26081 10.2091 1.17959 11.1274 1.54196C11.7395 1.78563 12.2112 2.25735 12.4579 2.87277C12.8233 3.79434 12.739 5.9811 12.739 6.99951C12.739 8.01792 12.8233 10.2078 12.4579 11.1263Z" fill="white"/>
</svg>
