<svg width="168" height="38" viewBox="0 0 168 38" fill="none" xmlns="http://www.w3.org/2000/svg">
<path d="M64 27.6885V9H66.2642V17.0205C66.7134 16.2245 67.3514 15.6102 68.178 15.1776C69.0046 14.7277 69.9031 14.5027 70.8734 14.5027C72.4188 14.5027 73.6587 14.9699 74.5931 15.9044C75.5276 16.8215 75.9948 18.2404 75.9948 20.1612V27.6885H73.7576V20.3948C73.7576 17.7127 72.6344 16.3716 70.3882 16.3716C69.2202 16.3716 68.2409 16.7782 67.4502 17.5915C66.6595 18.3875 66.2642 19.5296 66.2642 21.0178V27.6885H64Z" fill="white"/>
<path d="M86.056 28C84.7981 28 83.666 27.7231 82.6597 27.1694C81.6534 26.6157 80.8538 25.837 80.2608 24.8333C79.6857 23.8124 79.3982 22.6184 79.3982 21.2514C79.3982 19.8843 79.6947 18.699 80.2877 17.6954C80.8807 16.6744 81.6804 15.8871 82.6867 15.3333C83.711 14.7796 84.852 14.5027 86.1099 14.5027C87.3678 14.5027 88.4999 14.7796 89.5062 15.3333C90.5125 15.8871 91.3032 16.6744 91.8782 17.6954C92.4712 18.699 92.7677 19.8843 92.7677 21.2514C92.7677 22.6184 92.4712 23.8124 91.8782 24.8333C91.2852 25.837 90.4765 26.6157 89.4523 27.1694C88.446 27.7231 87.3139 28 86.056 28ZM86.056 26.1311C86.8287 26.1311 87.5475 25.9495 88.2124 25.5861C88.8772 25.2227 89.4163 24.6776 89.8296 23.9508C90.2429 23.224 90.4496 22.3242 90.4496 21.2514C90.4496 20.1785 90.2429 19.2787 89.8296 18.5519C89.4343 17.8251 88.9042 17.2801 88.2393 16.9167C87.5744 16.5533 86.8646 16.3716 86.1099 16.3716C85.3372 16.3716 84.6184 16.5533 83.9535 16.9167C83.2887 17.2801 82.7496 17.8251 82.3363 18.5519C81.923 19.2787 81.7163 20.1785 81.7163 21.2514C81.7163 22.3242 81.923 23.224 82.3363 23.9508C82.7496 24.6776 83.2797 25.2227 83.9266 25.5861C84.5915 25.9495 85.3013 26.1311 86.056 26.1311Z" fill="white"/>
<path d="M101.334 28C99.7524 28 98.4946 27.5414 97.5601 26.6243C96.6257 25.6899 96.1585 24.2623 96.1585 22.3415V14.8142H98.4227V22.1079C98.4227 24.7901 99.5638 26.1311 101.846 26.1311C103.014 26.1311 103.975 25.7332 104.73 24.9372C105.503 24.1239 105.889 22.9731 105.889 21.485V14.8142H108.153V27.6885H106.105L105.943 25.3784C105.53 26.1917 104.91 26.832 104.083 27.2992C103.274 27.7664 102.358 28 101.334 28Z" fill="white"/>
<path d="M112.419 27.6885V14.8142H114.468L114.63 16.6831C115.061 15.9909 115.636 15.4545 116.355 15.0738C117.073 14.6931 117.882 14.5027 118.781 14.5027C119.841 14.5027 120.748 14.7104 121.503 15.1257C122.276 15.541 122.869 16.1726 123.282 17.0205C123.749 16.2418 124.387 15.6275 125.196 15.1776C126.022 14.7277 126.912 14.5027 127.864 14.5027C129.464 14.5027 130.739 14.9699 131.692 15.9044C132.644 16.8215 133.12 18.2404 133.12 20.1612V27.6885H130.883V20.3948C130.883 19.0624 130.605 18.0587 130.048 17.3839C129.49 16.709 128.691 16.3716 127.649 16.3716C126.57 16.3716 125.672 16.7782 124.953 17.5915C124.252 18.3875 123.902 19.5296 123.902 21.0178V27.6885H121.638V20.3948C121.638 19.0624 121.359 18.0587 120.802 17.3839C120.245 16.709 119.445 16.3716 118.403 16.3716C117.343 16.3716 116.453 16.7782 115.735 17.5915C115.034 18.3875 114.683 19.5296 114.683 21.0178V27.6885H112.419Z" fill="white"/>
<path d="M143.081 28C141.805 28 140.673 27.7231 139.685 27.1694C138.696 26.5984 137.915 25.811 137.34 24.8074C136.783 23.8037 136.504 22.6184 136.504 21.2514C136.504 19.9016 136.783 18.725 137.34 17.7213C137.897 16.7004 138.669 15.913 139.658 15.3593C140.664 14.7883 141.823 14.5027 143.135 14.5027C144.429 14.5027 145.543 14.7883 146.477 15.3593C147.43 15.913 148.157 16.6485 148.661 17.5656C149.164 18.4827 149.415 19.469 149.415 20.5246C149.415 20.7149 149.406 20.9053 149.388 21.0956C149.388 21.286 149.388 21.5023 149.388 21.7445H138.741C138.795 22.7309 139.029 23.5528 139.442 24.2104C139.873 24.8506 140.403 25.3352 141.032 25.6639C141.679 25.9927 142.362 26.1571 143.081 26.1571C144.015 26.1571 144.797 25.9495 145.426 25.5342C146.055 25.1189 146.513 24.5565 146.801 23.847H149.038C148.678 25.041 147.987 26.036 146.962 26.832C145.956 27.6107 144.662 28 143.081 28ZM143.081 16.3456C142.003 16.3456 141.041 16.6658 140.197 17.306C139.37 17.929 138.894 18.8461 138.768 20.0574H147.178C147.124 18.898 146.711 17.9895 145.938 17.332C145.165 16.6744 144.213 16.3456 143.081 16.3456Z" fill="white"/>
<path d="M152.039 27.6885V25.8975L159.478 16.6311H152.174V14.8142H162.012V16.6052L154.573 25.8716H162.147V27.6885H152.039Z" fill="white"/>
<path d="M166.464 27.8183C166.014 27.8183 165.637 27.6799 165.331 27.403C165.044 27.1088 164.9 26.7541 164.9 26.3388C164.9 25.9235 165.044 25.5774 165.331 25.3005C165.637 25.0064 166.014 24.8593 166.464 24.8593C166.895 24.8593 167.254 25.0064 167.542 25.3005C167.847 25.5774 168 25.9235 168 26.3388C168 26.7541 167.847 27.1088 167.542 27.403C167.254 27.6799 166.895 27.8183 166.464 27.8183Z" fill="white"/>
<path fill-rule="evenodd" clip-rule="evenodd" d="M19 4.97009L38 22.0113V38H32V24.6897L19 13.0299L5.00307 25.5838L0.996918 21.1172L19 4.97009Z" fill="#FEE074"/>
<path fill-rule="evenodd" clip-rule="evenodd" d="M0 38V0H6V38H0Z" fill="#FEE074"/>
</svg>
