<svg width="18" height="14" viewBox="0 0 18 14" fill="none" xmlns="http://www.w3.org/2000/svg">
<path d="M16.1498 3.48856C16.1612 3.64168 16.1612 3.79483 16.1612 3.94795C16.1612 8.61824 12.4493 13.9995 5.66499 13.9995C3.57488 13.9995 1.63326 13.4198 0 12.4136C0.296966 12.4464 0.582471 12.4573 0.890863 12.4573C2.61546 12.4573 4.20305 11.8995 5.47083 10.948C3.84899 10.9151 2.48985 9.89796 2.02156 8.49795C2.25001 8.53074 2.47842 8.55262 2.71829 8.55262C3.0495 8.55262 3.38074 8.50886 3.6891 8.43233C1.99875 8.10418 0.730936 6.68232 0.730936 4.96513V4.9214C1.22204 5.1839 1.79315 5.34796 2.39844 5.36981C1.40478 4.73542 0.753788 3.65262 0.753788 2.42761C0.753788 1.77137 0.936496 1.16981 1.25631 0.644808C3.07232 2.78856 5.80203 4.18853 8.86293 4.34168C8.80583 4.07918 8.77155 3.80577 8.77155 3.53233C8.77155 1.58543 10.4162 -0.000488257 12.4607 -0.000488257C13.5228 -0.000488257 14.4822 0.426073 15.1561 1.11514C15.9898 0.962019 16.7893 0.666691 17.4975 0.262014C17.2233 1.08234 16.6409 1.77141 15.8756 2.20888C16.618 2.13235 17.3376 1.93543 18 1.66202C17.4975 2.36199 16.8693 2.98541 16.1498 3.48856Z" fill="white"/>
</svg>
