<svg width="148" height="12" viewBox="0 0 148 12" fill="none" xmlns="http://www.w3.org/2000/svg">
<path d="M145.291 1.75676C139.953 0.595497 134.062 1.02197 128.65 0.93391C122.756 0.767916 116.751 0.682482 110.826 0.708783C98.5922 0.699041 86.4232 0.897178 74.223 1.28761C50.2072 2.13082 25.9213 3.42359 2.17333 6.87573C-0.562918 7.32023 -0.144332 11.4337 2.65689 11.1971C26.4127 9.52236 50.0542 7.33572 73.8621 6.55749C85.4698 6.16969 97.0307 6.07032 108.576 6.06711C114.485 6.13696 120.49 6.22239 126.4 6.29224C132.501 6.39325 139.055 7.35697 145.088 6.65764C147.986 6.43661 148.048 2.40106 145.291 1.75676Z" fill="#FEE074"/>
</svg>
