<svg width="16" height="10" viewBox="0 0 16 10" fill="none" xmlns="http://www.w3.org/2000/svg">
<path d="M15.6654 1.56564C15.4814 0.949753 14.9392 0.464701 14.2509 0.300091C13.0031 0.000976562 7.99976 0.000976562 7.99976 0.000976562C7.99976 0.000976562 2.99644 0.000976562 1.74866 0.300091C1.06027 0.464727 0.518105 0.949753 0.334091 1.56564C-0.000244141 2.68197 -0.000244152 5.01108 -0.000244152 5.01108C-0.000244152 5.01108 -0.000244141 7.3402 0.334091 8.45652C0.518105 9.07241 1.06027 9.53725 1.74866 9.70186C2.99644 10.001 7.99976 10.001 7.99976 10.001C7.99976 10.001 13.0031 10.001 14.2509 9.70186C14.9392 9.53725 15.4814 9.07241 15.6654 8.45652C15.9998 7.3402 15.9998 5.01108 15.9998 5.01108C15.9998 5.01108 15.9998 2.68197 15.6654 1.56564ZM6.36338 7.12574V2.89642L10.5452 5.01113L6.36338 7.12574Z" fill="white"/>
</svg>
