<svg width="18" height="20" viewBox="0 0 18 20" fill="none" xmlns="http://www.w3.org/2000/svg">
<path d="M14.5257 19H3.47421C3.12929 19.0001 2.78815 18.9259 2.47271 18.782C2.15727 18.6381 1.8745 18.4277 1.64257 18.1644C1.41065 17.9012 1.23469 17.5907 1.126 17.2532C1.01731 16.9156 0.978294 16.5583 1.01146 16.2042L1.84237 7.30529C1.9015 6.67398 2.18661 6.08804 2.64204 5.66181C3.09748 5.23557 3.69057 4.99962 4.3056 5H13.6943C14.3093 4.99975 14.9022 5.23575 15.3576 5.66197C15.8129 6.0882 16.0979 6.67407 16.1571 7.30529L16.9884 16.2032C17.0218 16.5574 16.9828 16.9148 16.8742 17.2525C16.7656 17.5902 16.5897 17.9007 16.3577 18.1641C16.1258 18.4275 15.843 18.638 15.5274 18.7819C15.2119 18.9259 14.8707 19.0002 14.5257 19V19Z" stroke="#0A043C" stroke-width="1.5" stroke-linecap="round" stroke-linejoin="round"/>
<path d="M6 6.9985V4.07211C6.00039 3.2572 6.31661 2.4758 6.87913 1.89971C7.44165 1.32362 8.20443 1 8.99976 1V1C9.79539 1 10.5584 1.32381 11.1211 1.90021C11.6837 2.47661 11.9999 3.25839 12 4.07361V7" stroke="#0A043C" stroke-width="1.5" stroke-linecap="round" stroke-linejoin="round"/>
</svg>
