<svg width="262" height="159" viewBox="0 0 262 159" fill="none" xmlns="http://www.w3.org/2000/svg">
<ellipse cx="2.74825" cy="3.45704" rx="2.74825" ry="2.71827" fill="#C4C4C4"/>
<ellipse cx="2.74825" cy="104.939" rx="2.74825" ry="2.71827" fill="#C4C4C4"/>
<ellipse cx="2.74825" cy="54.1982" rx="2.74825" ry="2.71827" fill="#C4C4C4"/>
<ellipse cx="2.74825" cy="155.68" rx="2.74825" ry="2.71827" fill="#C4C4C4"/>
<ellipse cx="105.35" cy="3.45704" rx="2.74825" ry="2.71827" fill="#C4C4C4"/>
<ellipse cx="105.35" cy="104.939" rx="2.74825" ry="2.71827" fill="#C4C4C4"/>
<ellipse cx="105.35" cy="54.1982" rx="2.74825" ry="2.71827" fill="#C4C4C4"/>
<ellipse cx="105.35" cy="155.68" rx="2.74825" ry="2.71827" fill="#C4C4C4"/>
<ellipse cx="207.951" cy="3.45704" rx="2.74825" ry="2.71827" fill="#C4C4C4"/>
<ellipse cx="207.951" cy="104.939" rx="2.74825" ry="2.71827" fill="#C4C4C4"/>
<ellipse cx="207.951" cy="54.1982" rx="2.74825" ry="2.71827" fill="#C4C4C4"/>
<ellipse cx="207.951" cy="155.68" rx="2.74825" ry="2.71827" fill="#C4C4C4"/>
<ellipse cx="54.0489" cy="3.45704" rx="2.74825" ry="2.71827" fill="#C4C4C4"/>
<ellipse cx="54.0489" cy="104.939" rx="2.74825" ry="2.71827" fill="#C4C4C4"/>
<ellipse cx="54.0489" cy="54.1982" rx="2.74825" ry="2.71827" fill="#C4C4C4"/>
<ellipse cx="54.0489" cy="155.68" rx="2.74825" ry="2.71827" fill="#C4C4C4"/>
<ellipse cx="156.65" cy="3.45704" rx="2.74825" ry="2.71827" fill="#C4C4C4"/>
<ellipse cx="156.65" cy="104.939" rx="2.74825" ry="2.71827" fill="#C4C4C4"/>
<ellipse cx="156.65" cy="54.1982" rx="2.74825" ry="2.71827" fill="#C4C4C4"/>
<ellipse cx="156.65" cy="155.68" rx="2.74825" ry="2.71827" fill="#C4C4C4"/>
<ellipse cx="259.252" cy="3.45704" rx="2.74825" ry="2.71827" fill="#C4C4C4"/>
<ellipse cx="259.252" cy="104.939" rx="2.74825" ry="2.71827" fill="#C4C4C4"/>
<ellipse cx="259.252" cy="54.1982" rx="2.74825" ry="2.71827" fill="#C4C4C4"/>
<ellipse cx="259.252" cy="155.68" rx="2.74825" ry="2.71827" fill="#C4C4C4"/>
</svg>
