<svg width="22" height="21" viewBox="0 0 22 21" fill="none" xmlns="http://www.w3.org/2000/svg">
<path fill-rule="evenodd" clip-rule="evenodd" d="M14.894 20.229C11.876 20.229 8.32502 18.6603 5.34302 15.7422C0.585018 11.0821 -0.656982 4.99919 2.51502 1.89311C3.45202 0.976556 4.59202 0.4184 5.90702 0.232348L6.66702 0.124634L9.46402 6.51111L6.66702 7.88006C7.31502 9.08254 8.29702 10.3252 9.58602 11.5874C10.815 12.7909 12.083 13.7456 13.356 14.4232L14.67 11.9037L21.153 12.8104L21.191 13.6203C21.286 15.6365 20.696 17.3276 19.485 18.5124C18.301 19.6718 16.692 20.229 14.894 20.229ZM5.46102 2.34159C4.88602 2.53058 4.37202 2.84491 3.92902 3.27968C1.62902 5.53091 2.92502 10.6043 6.75702 14.3576C10.591 18.111 15.771 19.3771 18.071 17.1268C18.837 16.3768 19.113 15.3877 19.181 14.5123L15.814 14.0413L15.168 15.3084C14.924 15.7863 14.503 16.1378 13.982 16.2974C13.461 16.459 12.883 16.4012 12.399 16.1437C10.959 15.377 9.53602 14.3096 8.17102 12.973C6.74102 11.5727 5.64202 10.1734 4.90302 8.81326C4.64602 8.33834 4.59702 7.79585 4.76302 7.28469C4.92902 6.77648 5.28802 6.36619 5.77502 6.12726L6.88102 5.58575L5.46102 2.34159Z" fill="#92989F"/>
</svg>
