<svg width="136" height="28" viewBox="0 0 136 28" fill="none" xmlns="http://www.w3.org/2000/svg">
<path d="M0 9.33545V14.2599C1.69536 14.2588 3.37431 14.5894 4.94079 15.233C6.50727 15.8766 7.93052 16.8204 9.12912 18.0106C10.3274 19.2002 11.2777 20.6127 11.9257 22.1672C12.5737 23.7217 12.9067 25.3877 12.9056 27.0699H17.8633C17.8588 22.3684 15.9755 17.8607 12.6265 14.5359C9.27759 11.2111 4.7366 9.34082 0 9.33545H0Z" fill="#011158"/>
<path d="M24.7939 0.469971H16.937C20.9117 2.97011 24.2795 6.31253 26.7989 10.2574V2.45867C26.7985 1.93111 26.5871 1.42528 26.2111 1.05236C25.8352 0.679448 25.3254 0.469971 24.7939 0.469971Z" fill="#011158"/>
<path d="M4.93657 0.469971H0V4.90377C5.92089 4.90988 11.5975 7.24719 15.7843 11.4028C19.9711 15.5584 22.326 21.1929 22.3323 27.07H26.7985V22.17C25.7887 16.7845 23.1596 11.8289 19.2572 7.95542C15.3548 4.08196 10.3622 1.47228 4.93657 0.469971Z" fill="#011158"/>
<path d="M38.9499 3.39795H35.8032V19.1409H38.9499V3.39795Z" fill="#011158"/>
<path d="M50.5199 10.2189C49.996 9.74619 49.3829 9.38144 48.7159 9.14575C47.2832 8.6464 45.7219 8.6464 44.2892 9.14575C43.622 9.38127 43.0086 9.74603 42.4846 10.2189C41.9707 10.6891 41.5601 11.2596 41.2786 11.8947C40.9877 12.5874 40.8379 13.3305 40.8379 14.0811C40.8379 14.8317 40.9877 15.5748 41.2786 16.2676C41.5591 16.9044 41.9697 17.4765 42.4846 17.9476C43.0076 18.4207 43.6207 18.7853 44.2878 19.02C45.7203 19.5202 47.282 19.5202 48.7145 19.02C49.3818 18.7853 49.9951 18.4207 50.5185 17.9476C51.0331 17.4763 51.4437 16.9043 51.7244 16.2676C52.0153 15.5748 52.1651 14.8317 52.1651 14.0811C52.1651 13.3305 52.0153 12.5874 51.7244 11.8947C51.4432 11.2598 51.0331 10.6894 50.5199 10.2189ZM48.3591 15.9351C47.8495 16.3907 47.188 16.6428 46.5022 16.6428C45.8164 16.6428 45.1549 16.3907 44.6454 15.9351C44.2171 15.4103 43.9834 14.7554 43.9834 14.0801C43.9834 13.4047 44.2171 12.7498 44.6454 12.2251C45.1549 11.7694 45.8164 11.5173 46.5022 11.5173C47.188 11.5173 47.8495 11.7694 48.3591 12.2251C48.7874 12.7498 49.021 13.4047 49.021 14.0801C49.021 14.7554 48.7874 15.4103 48.3591 15.9351Z" fill="#011158"/>
<path d="M61.8172 10.3538H61.7778C61.6322 10.1511 61.4632 9.96592 61.2742 9.80224C61.0453 9.60119 60.7917 9.42952 60.5196 9.29124C59.8318 8.94094 59.0684 8.76242 58.2954 8.77114C57.618 8.75936 56.9481 8.91322 56.3447 9.21914C55.7825 9.50809 55.2861 9.9086 54.8863 10.3958C54.4786 10.898 54.1658 11.4693 53.9632 12.0821C53.7477 12.7135 53.6378 13.3756 53.6381 14.0421C53.6301 14.7576 53.751 15.4688 53.9949 16.1421C54.2159 16.7566 54.5605 17.3201 55.0076 17.7983C55.4531 18.2664 55.9937 18.635 56.5937 18.8798C57.246 19.1437 57.9451 19.2747 58.6494 19.2648C59.1704 19.2559 59.6854 19.1537 60.1698 18.9631C60.7131 18.7586 61.1837 18.4 61.5232 17.932H61.5655V18.912C61.5773 19.2389 61.523 19.5648 61.4059 19.8705C61.2888 20.1763 61.1112 20.4556 60.8835 20.6921C60.5947 20.9458 60.257 21.1386 59.891 21.2589C59.5249 21.3792 59.138 21.4246 58.7538 21.3921C58.1445 21.3989 57.5407 21.2782 56.9815 21.0379C56.4252 20.7912 55.9061 20.4689 55.4392 20.0803L53.698 22.6598C54.4097 23.2288 55.2416 23.6311 56.1317 23.8365C57.0125 24.0376 57.9135 24.1388 58.8172 24.1382C60.8031 24.1382 62.282 23.6419 63.2538 22.6493C64.2256 21.6567 64.7117 20.2026 64.7122 18.2869V9.02104H61.8208L61.8172 10.3538ZM61.6283 14.9661C61.5041 15.2625 61.3222 15.5315 61.093 15.7578C60.8596 15.9887 60.5861 16.1755 60.2855 16.3094C59.9734 16.447 59.6358 16.5181 59.2943 16.5181C58.9529 16.5181 58.6152 16.447 58.3031 16.3094C58.0066 16.1736 57.7366 15.9869 57.5055 15.7578C57.2753 15.5296 57.0927 15.2585 56.9681 14.9602C56.8435 14.6618 56.7793 14.342 56.7793 14.019C56.7793 13.6961 56.8435 13.3763 56.9681 13.0779C57.0927 12.7795 57.2753 12.5085 57.5055 12.2802C57.7367 12.0512 58.0067 11.8642 58.3031 11.7279C58.6153 11.5908 58.9529 11.52 59.2943 11.52C59.6357 11.52 59.9733 11.5908 60.2855 11.7279C60.5859 11.8623 60.8595 12.0494 61.093 12.2802C61.4392 12.6256 61.6747 13.0649 61.7699 13.5428C61.8652 14.0207 61.8159 14.516 61.6283 14.9661Z" fill="#011158"/>
<path d="M76.5331 10.2189C76.0092 9.74619 75.396 9.38144 74.7291 9.14575C73.2964 8.6464 71.7351 8.6464 70.3024 9.14575C69.6352 9.38127 69.0217 9.74603 68.4977 10.2189C67.9838 10.6891 67.5733 11.2596 67.2918 11.8947C67.0009 12.5874 66.8511 13.3305 66.8511 14.0811C66.8511 14.8317 67.0009 15.5748 67.2918 16.2676C67.5722 16.9044 67.9829 17.4765 68.4977 17.9476C69.0212 18.4209 69.6348 18.7855 70.3024 19.02C71.7349 19.5202 73.2966 19.5202 74.7291 19.02C75.3964 18.7853 76.0097 18.4207 76.5331 17.9476C77.0479 17.4765 77.4586 16.9044 77.739 16.2676C78.0299 15.5748 78.1797 14.8317 78.1797 14.0811C78.1797 13.3305 78.0299 12.5874 77.739 11.8947C77.4575 11.2596 77.047 10.6891 76.5331 10.2189ZM74.3723 15.9351C73.8627 16.3907 73.2012 16.6428 72.5154 16.6428C71.8296 16.6428 71.1681 16.3907 70.6585 15.9351C70.2303 15.4103 69.9966 14.7554 69.9966 14.0801C69.9966 13.4047 70.2303 12.7498 70.6585 12.2251C71.1681 11.7694 71.8296 11.5173 72.5154 11.5173C73.2012 11.5173 73.8627 11.7694 74.3723 12.2251C74.8005 12.7498 75.0342 13.4047 75.0342 14.0801C75.0342 14.7554 74.8005 15.4103 74.3723 15.9351Z" fill="#011158"/>
<path d="M82.3541 9.09106H80.6665V19.141H82.3541V9.09106Z" fill="#011158"/>
<path d="M81.5109 3.93772C81.3472 3.93464 81.1847 3.96548 81.0338 4.02828C80.8829 4.09107 80.7468 4.18445 80.6343 4.30242C80.4627 4.47414 80.3461 4.69243 80.2993 4.92978C80.2525 5.16713 80.2776 5.41292 80.3713 5.63617C80.465 5.85943 80.6232 6.05015 80.8259 6.18431C81.0286 6.31847 81.2668 6.39006 81.5105 6.39006C81.7542 6.39006 81.9924 6.31847 82.1951 6.18431C82.3978 6.05015 82.556 5.85943 82.6497 5.63617C82.7434 5.41292 82.7685 5.16713 82.7217 4.92978C82.6749 4.69243 82.5583 4.47414 82.3868 4.30242C82.2744 4.1844 82.1385 4.09098 81.9876 4.02818C81.8368 3.96537 81.6744 3.93456 81.5109 3.93772Z" fill="#011158"/>
<path d="M94.8377 10.3399C94.3629 9.85883 93.7919 9.48183 93.1613 9.23323C92.4693 8.96248 91.7309 8.82768 90.9871 8.83633C90.2865 8.82834 89.5936 8.98295 88.9639 9.28783C88.3436 9.59401 87.7945 10.0253 87.3517 10.5541H87.3066V9.09113H85.6211V24.0375H87.3066V17.3595H87.3496C87.7078 17.972 88.23 18.474 88.8581 18.8099C89.5873 19.2152 90.4126 19.4192 91.2481 19.4007C91.9321 19.405 92.6098 19.2697 93.2389 19.0031C93.8464 18.7474 94.3948 18.371 94.8504 17.8971C95.313 17.4129 95.6768 16.8443 95.9216 16.2227C96.4407 14.8668 96.4407 13.3689 95.9216 12.0129C95.6746 11.39 95.3063 10.8214 94.8377 10.3399ZM94.2425 15.5899C94.0852 16.0275 93.8391 16.4284 93.5194 16.7678C93.1998 17.1072 92.8134 17.378 92.3842 17.5632C91.4351 17.949 90.3713 17.949 89.4223 17.5632C88.9924 17.378 88.6055 17.107 88.2855 16.7672C87.9654 16.4274 87.7192 16.026 87.5619 15.5878C87.2306 14.6354 87.2306 13.6003 87.5619 12.6478C87.7192 12.2097 87.9654 11.8082 88.2855 11.4684C88.6055 11.1286 88.9924 10.8577 89.4223 10.6724C90.3713 10.2866 91.4351 10.2866 92.3842 10.6724C92.814 10.8577 93.201 11.1286 93.521 11.4684C93.841 11.8082 94.0873 12.2097 94.2446 12.6478C94.5758 13.6003 94.5758 14.6354 94.2446 15.5878L94.2425 15.5899Z" fill="#011158"/>
<path d="M104.811 14.12C104.49 13.882 104.133 13.6971 103.753 13.5726C103.336 13.4328 102.909 13.3215 102.476 13.2394C102.152 13.1844 101.831 13.1129 101.514 13.0252C101.231 12.949 100.956 12.8483 100.692 12.7242C100.48 12.6288 100.288 12.4938 100.127 12.3266C99.9907 12.1771 99.9172 11.9811 99.9221 11.7792C99.9188 11.5614 99.9831 11.3478 100.106 11.1674C100.227 10.9892 100.386 10.8391 100.571 10.7271C100.769 10.6083 100.985 10.5214 101.21 10.4695C101.441 10.4128 101.677 10.3839 101.915 10.3834C102.367 10.3694 102.814 10.4851 103.202 10.7166C103.552 10.9353 103.845 11.2332 104.057 11.586L105.463 10.6627C105.152 10.0524 104.645 9.56149 104.024 9.26621C103.397 8.97737 102.714 8.83078 102.023 8.83711C101.555 8.836 101.089 8.90105 100.639 9.03031C100.207 9.15239 99.7982 9.34139 99.4264 9.59031C99.0708 9.82858 98.7748 10.1444 98.5611 10.5136C98.3397 10.9068 98.2278 11.3513 98.2367 11.8016C98.219 12.2424 98.3198 12.6799 98.5286 13.0693C98.7191 13.395 98.985 13.6709 99.3044 13.8743C99.6569 14.095 100.039 14.2649 100.44 14.379C100.873 14.5078 101.327 14.6224 101.803 14.7227C102.078 14.7801 102.344 14.8445 102.603 14.9159C102.847 14.9806 103.08 15.0782 103.296 15.2057C103.487 15.318 103.652 15.4679 103.783 15.646C103.913 15.8433 103.977 16.0762 103.967 16.3117C103.974 16.5592 103.907 16.8032 103.772 17.0117C103.638 17.2093 103.46 17.3744 103.253 17.4947C103.029 17.6274 102.784 17.7221 102.528 17.7747C102.269 17.8313 102.004 17.8601 101.738 17.8608C101.212 17.881 100.691 17.7544 100.235 17.4954C99.8143 17.2299 99.4445 16.893 99.1422 16.5L97.8022 17.5311C98.2171 18.1705 98.8058 18.6802 99.5004 19.0011C100.212 19.2816 100.974 19.4168 101.74 19.3987C102.238 19.3991 102.735 19.3416 103.22 19.2272C103.682 19.1213 104.121 18.936 104.519 18.6798C104.898 18.4298 105.212 18.0939 105.436 17.6998C105.678 17.2525 105.797 16.75 105.783 16.2424C105.796 15.806 105.707 15.3725 105.523 14.9761C105.355 14.6401 105.111 14.3471 104.811 14.12Z" fill="#011158"/>
<path d="M116.97 16.7575V9.09106H115.283V13.9911C115.288 14.5193 115.226 15.0462 115.099 15.5591C114.99 15.9987 114.799 16.414 114.534 16.7827C114.283 17.1254 113.948 17.3989 113.56 17.5772C113.115 17.7736 112.631 17.8692 112.144 17.8572C111.814 17.8836 111.483 17.8311 111.178 17.7041C110.873 17.577 110.603 17.3791 110.391 17.1271C109.986 16.5416 109.787 15.8393 109.827 15.13V9.09106H108.139V15.2973C108.134 15.8598 108.211 16.4202 108.366 16.9612C108.502 17.4407 108.743 17.8846 109.072 18.2611C109.401 18.6291 109.811 18.9166 110.271 19.1011C110.818 19.3132 111.403 19.4155 111.991 19.4021C112.386 19.4052 112.78 19.3508 113.159 19.2404C113.502 19.1414 113.829 18.997 114.132 18.8113C114.408 18.6425 114.659 18.4366 114.879 18.1995C115.076 17.9884 115.24 17.7495 115.366 17.4904H115.409C115.409 17.7774 115.416 18.0574 115.431 18.3304C115.445 18.6034 115.452 18.8754 115.452 19.1466H117.053C117.053 18.8166 117.039 18.4515 117.01 18.0511C116.981 17.6507 116.967 17.2195 116.97 16.7575Z" fill="#011158"/>
<path d="M135.208 11.2927C135.095 10.8065 134.873 10.3518 134.559 9.96274C134.241 9.58633 133.831 9.29711 133.369 9.12274C132.787 8.91418 132.17 8.81588 131.552 8.83294C130.88 8.80381 130.215 8.97997 129.647 9.33764C129.121 9.71232 128.679 10.1915 128.35 10.7446C128.263 10.5724 128.151 10.3755 128.014 10.1538C127.861 9.91449 127.667 9.70363 127.441 9.53084C127.163 9.32108 126.853 9.15576 126.524 9.04084C126.081 8.89317 125.616 8.82398 125.149 8.83644C124.754 8.83321 124.361 8.88769 123.982 8.99814C123.639 9.09715 123.311 9.24148 123.008 9.42724C122.732 9.59621 122.481 9.80208 122.262 10.039C122.065 10.25 121.901 10.489 121.775 10.7481H121.731C121.731 10.4611 121.724 10.1825 121.71 9.90814C121.696 9.63374 121.688 9.36424 121.688 9.09194H120.087C120.087 9.42187 120.102 9.78704 120.13 10.1874C120.159 10.5878 120.173 11.0174 120.173 11.4761V19.1418H121.862V14.246C121.857 13.7175 121.919 13.1905 122.047 12.6773C122.154 12.2375 122.346 11.8222 122.611 11.4537C122.862 11.1109 123.197 10.8374 123.584 10.6592C124.03 10.4627 124.514 10.3671 125.001 10.3792C125.29 10.3548 125.58 10.4066 125.843 10.5296C126.105 10.6525 126.329 10.8422 126.494 11.0792C126.856 11.8158 127.013 12.6351 126.949 13.4522V19.1432H128.633V13.343C128.628 12.9297 128.697 12.5188 128.839 12.1299C128.964 11.7852 129.155 11.468 129.403 11.1961C129.636 10.9417 129.92 10.7371 130.236 10.5948C130.555 10.4513 130.902 10.378 131.253 10.3799C131.669 10.3649 132.084 10.4457 132.464 10.6158C132.764 10.7595 133.023 10.9736 133.221 11.2395C133.411 11.5028 133.544 11.8024 133.611 12.1194C133.683 12.4511 133.719 12.7895 133.719 13.1288V19.1418H135.403V13.0427C135.409 12.4538 135.344 11.8662 135.208 11.2927Z" fill="#011158"/>
</svg>
